<?xml version="1.0" standalone="no"?>
<!DOCTYPE svg PUBLIC "-//W3C//DTD SVG 20010904//EN"
 "http://www.w3.org/TR/2001/REC-SVG-20010904/DTD/svg10.dtd">
<svg version="1.0" xmlns="http://www.w3.org/2000/svg"
 width="302.000000pt" height="293.000000pt" viewBox="0 0 302.000000 293.000000"
 preserveAspectRatio="xMidYMid meet">

<g transform="translate(0.000000,293.000000) scale(0.100000,-0.100000)"
fill="#0f0" stroke="none">
<path d="M1264 2617 c-270 -155 -446 -256 -706 -406 l-167 -96 -1 -507 0 -508
235 0 235 0 0 105 0 105 -130 0 -130 0 0 343 1 342 127 73 c70 40 177 101 237
135 61 35 208 120 328 191 133 78 224 126 233 122 9 -3 113 -63 232 -133 120
-69 250 -145 290 -167 40 -23 74 -45 74 -51 0 -5 -31 -29 -71 -52 l-71 -42
-152 91 c-84 49 -188 110 -231 135 l-79 44 -51 -27 c-29 -15 -142 -79 -252
-143 -110 -65 -260 -151 -332 -192 l-133 -74 1 -60 0 -60 77 -44 c42 -25 217
-126 387 -224 171 -99 406 -234 522 -301 117 -66 213 -125 213 -131 0 -5 -75
-53 -167 -105 -92 -52 -190 -108 -218 -124 l-51 -30 -129 76 c-72 42 -170 99
-220 126 l-89 50 -67 -36 c-142 -79 -498 -287 -499 -292 0 -3 15 -13 33 -24
17 -10 151 -87 297 -171 146 -84 326 -188 400 -232 74 -44 167 -97 206 -118
l72 -39 153 89 c85 49 280 161 434 250 154 89 337 195 407 236 l127 74 1 508
0 507 -235 0 -235 0 0 -105 0 -105 130 0 130 0 0 -342 0 -343 -63 -36 c-34
-20 -154 -89 -265 -153 -112 -64 -289 -166 -392 -226 -104 -61 -192 -110 -195
-110 -4 0 -102 55 -218 123 -117 68 -251 146 -299 173 -49 27 -88 54 -88 59 0
6 31 28 70 48 82 45 42 58 326 -109 110 -64 204 -117 209 -117 6 0 73 37 150
83 122 72 215 125 548 316 l67 39 -2 60 -3 59 -175 102 c-291 168 -736 426
-882 510 -76 43 -138 82 -138 86 0 9 -9 3 236 146 105 62 194 112 199 112 4 0
91 -49 194 -109 274 -159 232 -148 332 -92 168 95 469 275 469 281 0 3 -55 37
-122 75 -68 38 -204 117 -303 175 -161 96 -496 289 -551 318 -18 10 -53 -7
-270 -131z"/>
</g>
</svg>
